<svg width="32" height="32" viewBox="0 0 32 32" fill="none" xmlns="http://www.w3.org/2000/svg">
<g clip-path="url(#clip0_1_57)">
<path d="M6.38957 9.81458C5.85517 9.84018 5.19634 10.1805 4.81874 10.6583C4.47314 11.0711 4.1774 11.7405 4.25207 12.3687C4.8558 12.421 5.46095 12.0546 5.83749 11.5896C6.20869 11.1106 6.4525 10.4695 6.38957 9.81458ZM11.5208 11.0937V20.6937H13.0396V17.4937H15.1208C17.0302 17.4937 18.4 16.1657 18.4 14.2937C18.4 12.4217 17.0546 11.0937 15.1708 11.0937H11.5208ZM13.0396 12.3729H14.8C16.1099 12.3729 16.8792 13.0809 16.8792 14.2937C16.8792 15.5065 16.1163 16.2125 14.8 16.2125H13.0396V12.3729ZM6.32082 12.6937C5.44082 12.6937 4.81065 13.1729 4.39999 13.1729C3.98292 13.1729 3.35957 12.6979 2.63957 12.6979C1.75957 12.6979 0.898136 13.2509 0.443736 14.0562C-0.489597 15.6658 0.201753 18.0495 1.10415 19.3604C1.54682 20.0089 2.07999 20.6937 2.79999 20.6937C3.46025 20.6692 3.68235 20.2937 4.47915 20.2937C5.28129 20.2937 5.51957 20.6937 6.23957 20.6937C6.95957 20.6937 7.39589 20.0339 7.83749 19.3854C8.34202 18.6494 8.5476 17.9311 8.5604 17.8937C8.54867 17.882 7.16487 17.351 7.15207 15.7542C7.14034 14.4187 8.24152 13.7821 8.29165 13.7458C7.66979 12.8221 6.63999 12.6937 6.39999 12.6937H6.32082ZM21.8875 13.6542C20.295 13.6542 19.1187 14.5473 19.075 15.775H20.425C20.5359 15.1915 21.0896 14.8083 21.8458 14.8083C22.7632 14.8083 23.2812 15.2277 23.2812 16V16.5333L21.4062 16.6333C19.6644 16.7368 18.7229 17.434 18.7229 18.65C18.7229 19.8777 19.6954 20.6937 21.0896 20.6937C22.0314 20.6937 22.9063 20.2247 23.3021 19.4833H23.3333V20.6208H24.7208V15.9042C24.7198 14.5346 23.6038 13.6542 21.8875 13.6542ZM25.2792 13.6542L27.8458 20.6604L27.7083 21.0875C27.4769 21.8096 27.1 22.0875 26.4312 22.0875C26.3171 22.0875 26.1013 22.0763 26.0021 22.0646V23.2187C26.1023 23.2411 26.4537 23.2542 26.5625 23.2542C28.0388 23.2542 28.7337 22.6978 29.3417 21.0125L32 13.6542H30.4604L28.6771 19.3396H28.6458L26.8625 13.6542H25.2792ZM23.2812 17.4937L23.275 18.05C23.275 18.9375 22.5071 19.5687 21.4917 19.5687C20.6927 19.5687 20.1833 19.1927 20.1833 18.6146C20.1833 18.0183 20.6739 17.6721 21.6104 17.6167L23.2812 17.4937Z" fill="black"/>
</g>
<defs>
<clipPath id="clip0_1_57">
<rect width="32" height="32" fill="white"/>
</clipPath>
</defs>
</svg>
