<svg width="32" height="32" viewBox="0 0 32 32" fill="none" xmlns="http://www.w3.org/2000/svg">
<g clip-path="url(#clip0_1_142)">
<path d="M6.38957 9.8147C5.85517 9.8403 5.19634 10.1806 4.81874 10.6584C4.47314 11.0712 4.1774 11.7406 4.25207 12.3689C4.8558 12.4211 5.46095 12.0548 5.83749 11.5897C6.20869 11.1108 6.4525 10.4696 6.38957 9.8147ZM11.5208 11.0939V20.6939H13.0396V17.4939H15.1208C17.0302 17.4939 18.4 16.1659 18.4 14.2939C18.4 12.4219 17.0546 11.0939 15.1708 11.0939H11.5208ZM13.0396 12.373H14.8C16.1099 12.373 16.8792 13.0811 16.8792 14.2939C16.8792 15.5067 16.1163 16.2126 14.8 16.2126H13.0396V12.373ZM6.32082 12.6939C5.44082 12.6939 4.81065 13.173 4.39999 13.173C3.98292 13.173 3.35957 12.698 2.63957 12.698C1.75957 12.698 0.898136 13.251 0.443736 14.0564C-0.489597 15.666 0.201753 18.0496 1.10415 19.3605C1.54682 20.0091 2.07999 20.6939 2.79999 20.6939C3.46025 20.6693 3.68235 20.2939 4.47915 20.2939C5.28129 20.2939 5.51957 20.6939 6.23957 20.6939C6.95957 20.6939 7.39589 20.0341 7.83749 19.3855C8.34202 18.6495 8.5476 17.9312 8.5604 17.8939C8.54867 17.8821 7.16487 17.3511 7.15207 15.7543C7.14034 14.4188 8.24152 13.7822 8.29165 13.7459C7.66979 12.8222 6.63999 12.6939 6.39999 12.6939H6.32082ZM21.8875 13.6543C20.295 13.6543 19.1187 14.5474 19.075 15.7751H20.425C20.5359 15.1916 21.0896 14.8084 21.8458 14.8084C22.7632 14.8084 23.2812 15.2278 23.2812 16.0001V16.5334L21.4062 16.6334C19.6644 16.7369 18.7229 17.4341 18.7229 18.6501C18.7229 19.8778 19.6954 20.6939 21.0896 20.6939C22.0314 20.6939 22.9063 20.2248 23.3021 19.4834H23.3333V20.6209H24.7208V15.9043C24.7198 14.5347 23.6038 13.6543 21.8875 13.6543ZM25.2792 13.6543L27.8458 20.6605L27.7083 21.0876C27.4769 21.8097 27.1 22.0876 26.4312 22.0876C26.3171 22.0876 26.1013 22.0764 26.0021 22.0647V23.2189C26.1023 23.2413 26.4537 23.2543 26.5625 23.2543C28.0388 23.2543 28.7337 22.6979 29.3417 21.0126L32 13.6543H30.4604L28.6771 19.3397H28.6458L26.8625 13.6543H25.2792ZM23.2812 17.4939L23.275 18.0501C23.275 18.9376 22.5071 19.5689 21.4917 19.5689C20.6927 19.5689 20.1833 19.1928 20.1833 18.6147C20.1833 18.0184 20.6739 17.6722 21.6104 17.6168L23.2812 17.4939Z" fill="white"/>
</g>
<defs>
<clipPath id="clip0_1_142">
<rect width="32" height="32" fill="white"/>
</clipPath>
</defs>
</svg>
