<svg width="32" height="32" viewBox="0 0 32 32" fill="none" xmlns="http://www.w3.org/2000/svg">
<g clip-path="url(#clip0_1_59)">
<path d="M15.1348 15.8552V19.5789H13.9525V10.3809H17.0864C17.8424 10.3648 18.573 10.6517 19.1158 11.1771C19.6654 11.6717 19.9751 12.3795 19.963 13.118C19.9791 13.862 19.6694 14.5751 19.1158 15.071C18.5676 15.5938 17.8907 15.8552 17.0864 15.8539L15.1348 15.8552ZM15.1348 11.5136V14.7252H17.1159C17.5556 14.7386 17.9792 14.5657 18.2848 14.2494C18.9054 13.6462 18.9201 12.6529 18.3156 12.0323C18.3049 12.0216 18.2955 12.0108 18.2848 12.0015C17.9832 11.6784 17.5569 11.5015 17.1159 11.5136H15.1348ZM22.6867 13.0805C23.5607 13.0805 24.2497 13.3137 24.755 13.7802C25.2604 14.2467 25.5124 14.8874 25.5124 15.6997V19.5789H24.3824V18.7049H24.3314C23.8422 19.4247 23.1907 19.784 22.3784 19.784C21.6854 19.784 21.105 19.5789 20.6386 19.1674C20.1855 18.7854 19.9281 18.2197 19.9389 17.6259C19.9389 16.9744 20.1855 16.457 20.6774 16.0723C21.1694 15.6876 21.8262 15.4946 22.6492 15.4946C23.3502 15.4946 23.9293 15.6233 24.3824 15.8793V15.6086C24.3851 15.2037 24.2054 14.8204 23.8945 14.563C23.5821 14.2815 23.1746 14.1274 22.7538 14.1327C22.0943 14.1327 21.5715 14.4116 21.1868 14.9678L20.1466 14.3124C20.7176 13.4907 21.5648 13.0805 22.6867 13.0805ZM21.1573 17.6527C21.156 17.9583 21.3021 18.2452 21.5487 18.4234C21.8101 18.6285 22.1345 18.7384 22.4669 18.7317C22.9655 18.7304 23.4441 18.532 23.7966 18.1795C24.188 17.8109 24.3837 17.3793 24.3837 16.882C24.0151 16.5884 23.5017 16.441 22.8422 16.441C22.3623 16.441 21.9616 16.5562 21.6412 16.7881C21.3182 17.024 21.1573 17.3096 21.1573 17.6527ZM32 13.2856L28.0551 22.3536H26.8354L28.2991 19.1808L25.704 13.2856H26.9882L28.8634 17.8069H28.8889L30.7132 13.2856H32Z" fill="#5F6368"/>
<path d="M10.3588 15.051C10.3588 14.6904 10.3293 14.3312 10.2677 13.976H5.28397V16.0107H8.13773C8.01978 16.6675 7.6391 17.2479 7.08282 17.6165V18.9382H8.7865C9.78378 18.02 10.3588 16.6595 10.3588 15.051Z" fill="#4285F4"/>
<path d="M5.28397 20.2157C6.71018 20.2157 7.91121 19.7479 8.7865 18.9396L7.08282 17.6179C6.60831 17.9396 5.99842 18.1233 5.28397 18.1233C3.90601 18.1233 2.73582 17.1943 2.31761 15.9424H0.562988V17.3043C1.45973 19.0897 3.28674 20.2157 5.28397 20.2157Z" fill="#34A853"/>
<path d="M2.3176 15.9423C2.09643 15.2868 2.09643 14.5751 2.3176 13.9196V12.5577H0.562979C-0.18766 14.051 -0.18766 15.811 0.562979 17.3042L2.3176 15.9423Z" fill="#FBBC04"/>
<path d="M5.28397 11.7387C6.03729 11.7267 6.76514 12.0108 7.3107 12.5309L8.82001 11.0229C7.86295 10.1248 6.59625 9.63157 5.28397 9.64632C3.28673 9.64632 1.45973 10.7736 0.562988 12.5577L2.31761 13.9196C2.73582 12.6676 3.90601 11.7387 5.28397 11.7387Z" fill="#EA4335"/>
</g>
<defs>
<clipPath id="clip0_1_59">
<rect width="32" height="32" fill="white"/>
</clipPath>
</defs>
</svg>
