<svg width="32" height="32" viewBox="0 0 32 32" fill="none" xmlns="http://www.w3.org/2000/svg">
<g clip-path="url(#clip0_1_134)">
<path d="M15.1348 15.8553V19.579H13.9525V10.381H17.0864C17.8424 10.3649 18.573 10.6518 19.1158 11.1772C19.6654 11.6718 19.9751 12.3796 19.963 13.1182C19.9791 13.8621 19.6694 14.5752 19.1158 15.0712C18.5676 15.5939 17.8907 15.8553 17.0864 15.854L15.1348 15.8553ZM15.1348 11.5137V14.7253H17.1159C17.5556 14.7387 17.9792 14.5658 18.2848 14.2495C18.9054 13.6463 18.9201 12.653 18.3156 12.0324C18.3049 12.0217 18.2955 12.011 18.2848 12.0016C17.9832 11.6785 17.5569 11.5016 17.1159 11.5137H15.1348ZM22.6867 13.0806C23.5607 13.0806 24.2497 13.3139 24.755 13.7803C25.2604 14.2468 25.5124 14.8875 25.5124 15.6998V19.579H24.3824V18.7051H24.3314C23.8422 19.4249 23.1907 19.7841 22.3784 19.7841C21.6854 19.7841 21.105 19.579 20.6386 19.1675C20.1855 18.7855 19.9281 18.2198 19.9389 17.626C19.9389 16.9746 20.1855 16.4572 20.6774 16.0725C21.1694 15.6878 21.8262 15.4947 22.6492 15.4947C23.3502 15.4947 23.9293 15.6234 24.3824 15.8794V15.6087C24.3851 15.2039 24.2054 14.8205 23.8945 14.5631C23.5821 14.2817 23.1746 14.1275 22.7538 14.1329C22.0943 14.1329 21.5715 14.4117 21.1868 14.968L20.1466 14.3125C20.7176 13.4908 21.5648 13.0806 22.6867 13.0806ZM21.1573 17.6528C21.156 17.9584 21.3021 18.2453 21.5487 18.4236C21.8101 18.6287 22.1345 18.7386 22.4669 18.7319C22.9655 18.7305 23.4441 18.5321 23.7966 18.1796C24.188 17.811 24.3837 17.3794 24.3837 16.8821C24.0151 16.5885 23.5017 16.4411 22.8422 16.4411C22.3623 16.4411 21.9616 16.5564 21.6412 16.7883C21.3182 17.0242 21.1573 17.3097 21.1573 17.6528ZM32 13.2857L28.0551 22.3537H26.8354L28.2991 19.1809L25.704 13.2857H26.9882L28.8634 17.807H28.8889L30.7132 13.2857H32Z" fill="white"/>
<path d="M10.3588 15.0511C10.3588 14.6905 10.3293 14.3313 10.2677 13.9761H5.28397V16.0108H8.13773C8.01978 16.6677 7.6391 17.2481 7.08282 17.6167V18.9383H8.7865C9.78378 18.0201 10.3588 16.6596 10.3588 15.0511Z" fill="#4285F4"/>
<path d="M5.28397 20.2157C6.71018 20.2157 7.91121 19.7479 8.7865 18.9396L7.08282 17.6179C6.60831 17.9396 5.99842 18.1233 5.28397 18.1233C3.90601 18.1233 2.73582 17.1943 2.31761 15.9424H0.562988V17.3043C1.45973 19.0897 3.28674 20.2157 5.28397 20.2157Z" fill="#34A853"/>
<path d="M2.3176 15.9424C2.09643 15.287 2.09643 14.5752 2.3176 13.9197V12.5579H0.562979C-0.18766 14.0511 -0.18766 15.8111 0.562979 17.3043L2.3176 15.9424Z" fill="#FBBC04"/>
<path d="M5.28397 11.7387C6.03729 11.7267 6.76514 12.0108 7.3107 12.5309L8.82001 11.0229C7.86295 10.1248 6.59625 9.63157 5.28397 9.64632C3.28673 9.64632 1.45973 10.7736 0.562988 12.5577L2.31761 13.9196C2.73582 12.6676 3.90601 11.7387 5.28397 11.7387Z" fill="#EA4335"/>
</g>
<defs>
<clipPath id="clip0_1_134">
<rect width="32" height="32" fill="white"/>
</clipPath>
</defs>
</svg>
