<svg width="33" height="33" viewBox="0 0 33 33" fill="none" xmlns="http://www.w3.org/2000/svg">
<g clip-path="url(#clip0_8_263)">
<path d="M12.8091 8.53186H21.191V23.468H12.8091V8.53186Z" fill="#FF5F00"/>
<path d="M13.3412 16C13.3412 12.9653 14.778 10.2736 16.9865 8.53189C15.3635 7.26525 13.3146 6.5 11.0795 6.5C5.78403 6.5 1.5 10.7485 1.5 16C1.5 21.2515 5.78403 25.5 11.0793 25.5C13.3145 25.5 15.3634 24.7348 16.9865 23.468C14.778 21.7527 13.3412 19.0347 13.3412 16Z" fill="#EB001B"/>
<path d="M32.4998 16C32.4998 21.2513 28.2158 25.5 22.9205 25.5C20.6853 25.5 18.6365 24.7348 17.0133 23.468C19.2485 21.7264 20.6588 19.0347 20.6588 16C20.6588 12.9653 19.2218 10.2736 17.0133 8.53189C18.6363 7.26525 20.6853 6.5 22.9205 6.5C28.2158 6.5 32.4998 10.775 32.4998 16Z" fill="#F79E1B"/>
</g>
<defs>
<clipPath id="clip0_8_263">
<rect width="32" height="32" fill="white" transform="translate(0.5 0.5)"/>
</clipPath>
</defs>
</svg>
