<svg width="42" height="26" viewBox="0 0 42 26" fill="none" xmlns="http://www.w3.org/2000/svg">
<path d="M15.463 3.00989H26.5372V22.99H15.463V3.00989Z" fill="#FF5F00"/>
<path d="M16.1659 13.0001C16.1659 8.94055 18.0643 5.33983 20.9822 3.00994C18.8378 1.31555 16.1308 0.29187 13.1777 0.29187C6.18134 0.29187 0.52124 5.97517 0.52124 13.0001C0.52124 20.0249 6.18134 25.7082 13.1776 25.7082C16.1307 25.7082 18.8377 24.6846 20.9822 22.99C18.0643 20.6955 16.1659 17.0595 16.1659 13.0001Z" fill="#EB001B"/>
<path d="M41.4786 13.0001C41.4786 20.0248 35.8185 25.7082 28.8223 25.7082C25.8692 25.7082 23.1622 24.6846 21.0176 22.99C23.9708 20.6603 25.8341 17.0595 25.8341 13.0001C25.8341 8.94055 23.9355 5.33983 21.0176 3.00994C23.162 1.31555 25.8692 0.29187 28.8223 0.29187C35.8185 0.29187 41.4786 6.01054 41.4786 13.0001Z" fill="#F79E1B"/>
</svg>
