<svg width="42" height="26" viewBox="0 0 42 26" fill="none" xmlns="http://www.w3.org/2000/svg">
<path d="M15.463 3.00977H26.5372V22.9898H15.463V3.00977Z" fill="#FF5F00"/>
<path d="M16.1659 12.9999C16.1659 8.94043 18.0643 5.33971 20.9822 3.00982C18.8378 1.31543 16.1308 0.291748 13.1777 0.291748C6.18134 0.291748 0.52124 5.97504 0.52124 12.9999C0.52124 20.0248 6.18134 25.7081 13.1776 25.7081C16.1307 25.7081 18.8377 24.6844 20.9822 22.9899C18.0643 20.6954 16.1659 17.0594 16.1659 12.9999Z" fill="#EB001B"/>
<path d="M41.4786 12.9999C41.4786 20.0247 35.8185 25.7081 28.8223 25.7081C25.8692 25.7081 23.1622 24.6844 21.0176 22.9899C23.9708 20.6602 25.8341 17.0594 25.8341 12.9999C25.8341 8.94043 23.9355 5.33971 21.0176 3.00982C23.162 1.31543 25.8692 0.291748 28.8223 0.291748C35.8185 0.291748 41.4786 6.01042 41.4786 12.9999Z" fill="#F79E1B"/>
</svg>
