<svg width="32" height="32" viewBox="0 0 32 32" fill="none" xmlns="http://www.w3.org/2000/svg">
<path d="M15.17 18.3269C15.5079 17.9885 16.0899 17.9885 16.4279 18.3269L21.2468 23.1514C22.1354 24.0411 23.3182 24.5298 24.5699 24.5298H25.5149L19.4381 30.6137C17.5419 32.4621 14.4628 32.4621 12.5665 30.6137L6.46475 24.511H7.04677C8.29842 24.511 9.48123 24.0223 10.3699 23.1326L15.17 18.3269ZM16.4279 13.7154C16.0274 14.06 15.5142 14.0663 15.17 13.7154L10.3699 8.90966C9.48123 7.96356 8.29842 7.53123 7.04677 7.53123H6.46475L12.5603 1.42602C14.4628 -0.47534 17.5419 -0.47534 19.4381 1.42602L25.5211 7.51243H24.5699C23.3182 7.51243 22.1354 8.00115 21.2468 8.89087L16.4279 13.7154ZM7.04677 8.94099C7.91041 8.94099 8.7052 9.29187 9.36858 9.9059L14.1687 14.7116C14.6193 15.1064 15.2075 15.3883 15.8021 15.3883C16.3903 15.3883 16.9786 15.1064 17.4292 14.7116L22.2481 9.8871C22.8614 9.27934 23.7062 8.92846 24.5699 8.92846H26.9292L30.5778 12.5813C32.4741 14.4798 32.4741 17.5625 30.5778 19.461L26.9292 23.1138H24.5699C23.7062 23.1138 22.8614 22.7629 22.2481 22.1489L17.4292 17.3244C16.5593 16.4535 15.0386 16.4535 14.1687 17.3306L9.36858 22.1301C8.7052 22.7441 7.91041 23.095 7.04677 23.095H5.05539L1.42435 19.461C-0.474783 17.5625 -0.474783 14.4798 1.42435 12.5813L5.05539 8.94099H7.04677Z" fill="white"/>
</svg>
