<svg width="33" height="33" viewBox="0 0 33 33" fill="none" xmlns="http://www.w3.org/2000/svg">
<g clip-path="url(#clip0_8_266)">
<g clip-path="url(#clip1_8_266)">
<path d="M15.584 16.5026C15.5646 18.0288 16.947 18.8804 17.9884 19.3868C19.0583 19.9063 19.4177 20.2395 19.4134 20.7042C19.4055 21.4152 18.56 21.729 17.7688 21.7412C16.3885 21.7625 15.586 21.3693 14.948 21.0719L14.4507 23.3937C15.0909 23.6881 16.2762 23.9448 17.5053 23.9561C20.3906 23.9561 22.2783 22.5348 22.2885 20.3312C22.2998 17.5346 18.412 17.3798 18.4386 16.1298C18.4478 15.7507 18.8102 15.3462 19.6044 15.2434C19.9975 15.1914 21.0827 15.1517 22.3131 15.7171L22.796 13.4707C22.1343 13.2303 21.2839 13.0001 20.2252 13.0001C17.5095 13.0001 15.5994 14.4407 15.584 16.5026ZM27.4361 13.1935C26.9092 13.1935 26.4652 13.5002 26.2671 13.9708L22.1456 23.7911H25.0288L25.6025 22.2088H29.1257L29.4585 23.7911H31.9997L29.7821 13.1935H27.4361ZM27.8394 16.0563L28.6715 20.0358H26.3927L27.8394 16.0563ZM12.0883 13.1937L9.81566 23.7909H12.5631L14.8347 13.1934L12.0883 13.1937ZM8.02392 13.1937L5.16426 20.4066L4.00749 14.2735C3.87175 13.5889 3.33573 13.1935 2.74048 13.1935H-1.93416L-1.99963 13.5013C-1.03995 13.7091 0.0504183 14.0443 0.711014 14.4029C1.11529 14.622 1.23057 14.8135 1.36338 15.334L3.55434 23.7911H6.45769L10.9089 13.1935L8.02392 13.1937Z" fill="url(#paint0_linear_8_266)"/>
</g>
</g>
<defs>
<linearGradient id="paint0_linear_8_266" x1="1561.08" y1="45.9338" x2="1592.73" y2="-1079.27" gradientUnits="userSpaceOnUse">
<stop stop-color="#222357"/>
<stop offset="1" stop-color="#254AA5"/>
</linearGradient>
<clipPath id="clip0_8_266">
<rect width="32" height="32" fill="white" transform="translate(0.5 0.5)"/>
</clipPath>
<clipPath id="clip1_8_266">
<rect width="34" height="11" fill="white" transform="translate(-2 13)"/>
</clipPath>
</defs>
</svg>
