<svg width="32" height="10" viewBox="0 0 32 10" fill="none" xmlns="http://www.w3.org/2000/svg">
<g clip-path="url(#clip0_1_71)">
<path d="M16.5496 3.18406C16.5313 4.57153 17.8324 5.34574 18.8125 5.80611C19.8195 6.27839 20.1578 6.58129 20.1538 7.0037C20.1463 7.65008 19.3505 7.93538 18.6059 7.94647C17.3068 7.96586 16.5515 7.60839 15.951 7.33803L15.483 9.44876C16.0855 9.71635 17.2011 9.94972 18.3579 9.95996C21.0735 9.95996 22.8501 8.66791 22.8597 6.66466C22.8703 4.12225 19.2113 3.98153 19.2363 2.84514C19.2449 2.50056 19.586 2.13285 20.3335 2.03936C20.7035 1.99213 21.7249 1.95598 22.8828 2.46996L23.3373 0.427792C22.7146 0.209238 21.9142 -3.98351e-05 20.9178 -3.98351e-05C18.3618 -3.98351e-05 16.5641 1.3096 16.5496 3.18406ZM27.7045 0.175864C27.2086 0.175864 26.7908 0.454659 26.6043 0.88249L22.7252 9.80996H25.4388L25.9788 8.37153H29.2947L29.608 9.80996H31.9997L29.9126 0.175864H27.7045ZM28.0841 2.77839L28.8672 6.39611H26.7225L28.0841 2.77839ZM13.2595 0.175984L11.1206 9.80984H13.7064L15.8444 0.175743L13.2595 0.175984ZM9.43424 0.175984L6.74279 6.73321L5.65407 1.15767C5.52632 0.535262 5.02183 0.175864 4.46159 0.175864H0.0619289L0.000305176 0.455623C0.903537 0.644538 1.92977 0.949237 2.5515 1.27526C2.932 1.47442 3.04049 1.64851 3.16549 2.12177L5.22757 9.80996H7.96014L12.1496 0.175864L9.43424 0.175984Z" fill="url(#paint0_linear_1_71)"/>
</g>
<defs>
<linearGradient id="paint0_linear_1_71" x1="1471.14" y1="29.9397" x2="1498.93" y2="-993.025" gradientUnits="userSpaceOnUse">
<stop stop-color="#222357"/>
<stop offset="1" stop-color="#254AA5"/>
</linearGradient>
<clipPath id="clip0_1_71">
<rect width="32" height="10" fill="white"/>
</clipPath>
</defs>
</svg>
